<svg xmlns="http://www.w3.org/2000/svg" width="560" height="612" viewBox="0 0 560 612">
    <g fill="none" fill-rule="evenodd">
        <path fill="#E9E9F1" d="M765.319 400.659C765.319 211.966 612.353 59 423.66 59 234.966 59 82 211.966 82 400.659c0 79.216 26.968 152.128 72.213 210.077h538.894c45.243-57.949 72.212-130.861 72.212-210.077" transform="translate(0 1)"/>
        <path fill="#D05950" d="M478.13 214.138c-6.864-22.358-21.053-40.379-32.043-60.716-2.82-5.22-6.273-10.231-8.842-15.62-1.01-2.148-6.358-12.632-11.874-23.327-6.767-14.565-23.754-21.282-38.652-15.284-9.06 3.94-15.96 11.623-18.905 21.052-5.137 15.79-15.453 36.632-21.053 43.284-10.695 12.632-23.747 24.295-31.705 39.074-4.59 8.421-4.632 18.105-7.242 27.284 2.652-7.958 11.873-14.19 18.147-18.82.926 6.947-2.695 17.305-3.41 24.462-1.067 11.418.444 22.93 4.42 33.685 8.674 24.758 26.358 41.642 40.59 62.652 3.368 4.927 5.6 10.274 9.347 14.99 1.306 1.642 3.621 5.894 5.516 5.812 2.695 0 9.474-8.886 11.326-10.654 17.853-17.264 40.59-27.58 53.643-49.98 8.8-15.073 11.284-31.873 17.136-47.915 3.116 9.01 1.81 19.242 4.21 28.379 7.706-18.863 15.622-37.769 9.39-58.358z" transform="translate(0 1)"/>
        <path fill="#D5D5DF" d="M509.55 560.78c-3.536-4.968-6.905-9.347-10.02-13.053-7.159-11.031-10.822-22.147-8.885-33.389l-98.316-.547-46.82-6.569c.589 2.105 1.136 4.21 1.726 6.316 0 0-3.664 24.884 18.863 79.747 1.307 6.645 3.007 11.052 4.198 17.715 60.448-.264 17.677-.264 67.012 0-.868-11.934-2.3-21.186-3.379-32.999l1.895-.42c11.261 11.883 21.015 21.504 28.566 33.419h73.067c-7.793-21.748-18.52-36.96-27.907-50.22z" transform="translate(0 1)"/>
        <path fill="#9494A2" d="M455.277 257.243c-6.274 4.632-6.527 12.884-5.432 19.327.74 4.403 2.161 8.664 4.21 12.631 6.611 13.347 31.159 61.39 50.527 80.421 8.426 8.382 21.465 9.977 31.663 3.874 22.61-13.474 60.421-37.053 70.61-49.558-1.347-1.81-.884-1.221-2.736-3.579-1.853-2.358-5.726-7.705-8.421-10.484-14.274 11.452-69.6 21.558-69.6 21.558s-32.463-48.59-39.284-67.832c-4-10.82-15.495-18.147-31.537-6.358zM393.13 254.17c5.81 5.22 5.22 13.473 3.536 19.789-1.197 4.29-3.028 8.377-5.431 12.126-7.916 12.632-37.053 57.98-58.064 75.074-9.211 7.496-22.334 7.791-31.873.716-21.053-15.621-56.548-42.821-65.432-56.253 1.558-1.642 1.01-1.137 3.074-3.284 2.063-2.147 6.442-7.116 9.221-9.642 13.095 12.631 67.368 28.337 67.368 28.337s37.053-45.18 45.727-63.663c4.758-10.316 16.884-16.506 31.873-3.2z" transform="translate(0 1)"/>
        <path fill="#FFF" d="M235.698 305.58c-17.558-11.79-31.495-25.263-33.684-47.747-.38-3.916 7.242-7.58 12.631-3.032 6.877 6.3 12.122 14.174 15.284 22.947 1.095-2.778 0-7.957 1.432-10.442 1.432-2.484 2.147-6.105 6.442-1.515 4.295 4.59 8.884 18.863 9.895 26.652-3.748 4.632-8 8.59-12 13.137z" transform="translate(0 1)"/>
        <path fill="#9494A2" d="M493.803 523.433c-11.74 7.888-25.01 13.21-38.947 15.62-37.895 6.906-81.516-3.789-120.548-19.073 4.533-15.88 10.16-31.425 16.842-46.526 11.495-25.263 25.264-50.148 23.79-78.737-1.087-13.577-4.416-26.88-9.853-39.369-4.155-9.604-5.47-20.197-3.79-30.526 1.264-7.831 3.706-15.537 5.264-23.326 2.442-13.18 18.653-52.884 18.653-52.884l8.884 4.21 9.473 4.463c1.853-.21 5.98-1.515 6.906-3.326.062-.263.062-.537 0-.8l-.084-5.432 29.473.421.463 4.632c.38 3.453 0 6.105 3.495 6.274 3.341-.064 6.646-.705 9.769-1.895 5.515-1.895 10.568-4.505 11.242-4.505.673 0 20.758 73.01 17.347 91.494-3.916 21.516-14.947 37.474-17.179 59.958-.524 8.288.446 16.603 2.863 24.548 13.684 40.716 25.937 94.779 25.937 94.779z" transform="translate(0 1)"/>
        <path stroke="#7B7B82" stroke-width="3.165" d="M360.3 330.914l11.56-37.32m111.38 47.015l-6.292-35.884" transform="translate(0 1)"/>
        <path fill="#FFF" d="M424.414 308.99s-32.506 1.011-30.316-56.126l9.473 4.463c1.853-.21 5.98-1.515 6.906-3.326.062-.263.062-.537 0-.8l-.084-5.474 29.473.421.463 4.632c.38 3.453 0 6.105 3.495 6.274 3.341-.064 6.646-.705 9.769-1.895 3.41 25.221-8.59 51.158-29.18 51.832z" transform="translate(0 1)"/>
        <path fill="#E9E9F1" d="M410.687 253.201c13.18 3.158 22.4.716 29.18-5.22l-1.6-22.317-29.474 6.821 1.894 20.716z" transform="translate(0 1)"/>
        <path fill="#FFF" d="M473.635 171.938c-2.292-.045-4.547.585-6.485 1.81-3.06-13.706-9.403-26.465-18.484-37.178-3.124-4.398-7.41-7.838-12.379-9.937-2.317-1.226-4.846-1.997-7.452-2.274-1.697-.104-3.398-.104-5.095 0h-5.095c-2.596.273-5.121 1.014-7.452 2.19-5.023 2.043-9.391 5.42-12.632 9.768-9.212 10.604-15.7 23.293-18.905 36.968-1.916-1.286-4.177-1.961-6.485-1.937-6.652.548-8.884 10.99-7.115 18.948 2.273 10.063 9.937 13.263 17.052 15.326 3.37 6.886 7.787 13.207 13.095 18.737 5.43 6.571 12.799 11.258 21.053 13.39h.758l1.39.336h1.81c.645.042 1.292.042 1.936 0h3.706l1.431-.337h.716c8.24-2.02 15.617-6.623 21.053-13.136 5.381-5.438 9.871-11.69 13.305-18.527 7.158-1.979 14.863-5.052 17.221-15.115 1.853-7.916-.253-18.4-6.947-19.032z" transform="translate(0 1)"/>
        <path stroke="#100E0F" stroke-linecap="round" stroke-linejoin="round" stroke-width="1.627" d="M372 184.17s5.256-1.752 8.986 5.986M473.986 184.17s-5.257-1.752-8.986 5.986" transform="translate(0 1)"/>
        <path fill="#2D2D37" d="M411.027 187.014c0 1.664-1.347 3.013-3.013 3.013-1.663 0-3.014-1.349-3.014-3.013 0-1.665 1.35-3.014 3.014-3.014 1.666 0 3.013 1.35 3.013 3.014M445.027 188.014c0 1.664-1.347 3.013-3.013 3.013-1.663 0-3.014-1.349-3.014-3.013 0-1.665 1.35-3.014 3.014-3.014 1.666 0 3.013 1.35 3.013 3.014" transform="translate(0 1)"/>
        <path fill="#EE6459" d="M417.937 177.001L398 182.151s.906-5.593 9.062-7.625c8.156-2.03 10.875 2.475 10.875 2.475M433 171.001l19.937 5.15s-.906-5.593-9.062-7.625C435.72 166.496 433 171 433 171" transform="translate(0 1)"/>
        <path stroke="#100E0F" stroke-linecap="round" stroke-linejoin="round" stroke-width="1.627" d="M413.563 210.995s4.873-2.64 9.889 4.334" transform="translate(0 1)"/>
        <path stroke="#100E0F" stroke-linecap="round" stroke-linejoin="round" stroke-width="1.745" d="M423 193L423 200.643 428.546 200.643" transform="translate(0 1) matrix(-1 0 0 1 851.546 0)"/>
        <path fill="#EE6459" d="M470.814 146.927c-3.471-14.505-14.086-26.246-28.169-31.157-15.022-5.003-31.432-3.697-45.474 3.62-16.378 9.432-28.42 32.885-20 51.748 2.695 6.063 4.716 14.947 9.474 19.663 2.274-6.947.969-14.442 3.832-21.053 5.101-.94 10.105-2.35 14.947-4.21 7.451-2.797 14.35-6.888 20.38-12.084 4.283-3.815 8.048-8.175 11.2-12.969-2.738 5.895 1.515 16.842 5.6 21.348 4.083 4.505 9.01 5.179 12.63 9.179 2.85 3.434 4.347 7.791 4.211 12.252.15 3.698-.305 7.396-1.347 10.948.337-1.221 2.737-3.032 3.537-4.21 1.167-1.727 2.194-3.543 3.073-5.432 1.867-3.91 3.28-8.021 4.21-12.253 1.559-7.495 3.58-18.021 1.896-25.39z" transform="translate(0 1)"/>
        <path fill="#9494A2" d="M19.422 287.34c0 5.363-4.347 9.71-9.71 9.71S0 292.704 0 287.34c0-5.362 4.35-9.71 9.712-9.71 5.363 0 9.71 4.348 9.71 9.71" transform="translate(0 1)"/>
        <path stroke="#FDF8F9" stroke-linecap="round" stroke-linejoin="round" stroke-width="3.076" d="M430.879 1.414L499.19 1.414" transform="translate(0 1)"/>
    </g>
</svg>
