<svg xmlns="http://www.w3.org/2000/svg" width="848" height="616" viewBox="0 0 848 616">
  <g fill="none" fill-rule="evenodd">
    <path fill="#E9E9F1" d="M765.319 405.659C765.319 216.966 612.353 64 423.66 64 234.966 64 82 216.966 82 405.659c0 79.216 26.968 152.128 72.213 210.077h538.894c45.243-57.949 72.212-130.861 72.212-210.077"/>
    <path fill="#D5D5DF" d="M128.86 466.157H44.785c-8.166 0-14.786-6.62-14.786-14.786V373.21C30 367.018 35.02 362 41.21 362h87.65c6.19 0 11.208 5.018 11.208 11.209v81.737c0 6.191-5.018 11.21-11.209 11.21"/>
    <path fill="#FFF" fill-rule="nonzero" d="M59.017 414.894c.002-.143.027-.283.074-.417 3.049 1.61 7.568 2.285 11.923 2.285 4.354 0 8.862-.657 11.922-2.285.047.134.072.274.074.417v3.314c0 2.125-5.365 3.85-11.985 3.85-6.62 0-11.985-1.713-11.985-3.85l-.023-3.314zm0 21.255c0 2.137 5.37 3.851 11.99 3.851s11.986-1.714 11.986-3.851v-3.314c-.002-.142-.027-.283-.074-.417-3.049 1.611-7.568 2.285-11.922 2.285-4.355 0-8.863-.657-11.923-2.285-.047.134-.072.275-.074.417l.017 3.314zm51.966 0v-3.314c-.002-.142-.027-.283-.074-.417-3.049 1.611-7.568 2.285-11.923 2.285-4.354 0-8.862-.657-11.922-2.285-.047.134-.072.275-.074.417v3.314c.023 2.137 5.394 3.851 12.008 3.851 6.614 0 11.99-1.714 11.99-3.851h-.005zm-51.966-8.976c0 2.125 5.365 3.85 11.985 3.85 6.62 0 11.985-1.714 11.985-3.85v-3.314c-.002-.143-.027-.283-.073-.418-3.02 1.612-7.563 2.275-11.906 2.275-4.343 0-8.863-.658-11.923-2.286-.047.134-.072.275-.074.417l.006 3.326zm0-21.256v3.314c0 2.126 5.365 3.851 11.985 3.851 6.62 0 11.985-1.714 11.985-3.85v-3.315c0-2.125-5.365-3.85-11.985-3.85-6.62 0-11.985 1.725-11.985 3.856v-.006zm47.441-10.342c.194-.033.385-.087.568-.16.17-.066.332-.153.482-.257.145-.102.274-.223.386-.36.149-.183.262-.392.335-.617.057-.212.075-.433.051-.651-.014-.223-.068-.442-.158-.646-.1-.21-.232-.403-.392-.571l-6.904-7.565c-.11-.12-.234-.225-.37-.315-.138-.093-.287-.171-.442-.234-.16-.065-.325-.115-.494-.148-.349-.068-.707-.068-1.056 0-.169.033-.334.083-.494.148-.153.063-.3.141-.437.234-.133.09-.255.196-.363.315l-6.904 7.542c-.079.086-.15.177-.216.274-.063.095-.118.194-.165.297-.046.102-.084.207-.113.314-.029.107-.048.216-.057.326-.02.25.013.501.097.737.028.079.062.155.102.229.092.179.21.343.352.485.145.145.31.268.488.366.179.102.37.18.568.234.22.055.444.081.67.08h2.878l-.34 9.76c-.002.309.062.615.187.897.115.279.285.531.5.742.22.219.48.391.766.509.303.125.627.189.954.189h4.144c.327.002.651-.06.954-.183.284-.119.543-.291.761-.509.211-.214.377-.468.488-.748.117-.286.17-.594.16-.903l-.341-9.76h2.77c.196.003.392-.012.585-.045v-.006zM111 423.86c-.002-.143-.027-.283-.074-.418-3.049 1.612-7.568 2.286-11.923 2.286-4.354 0-8.862-.657-11.922-2.286-.047.135-.072.275-.074.418v3.314c0 2.125 5.365 3.85 11.985 3.85 6.62 0 11.985-1.714 11.985-3.85l.023-3.314zm0-8.971c0-2.126-5.365-3.851-11.985-3.851-6.62 0-11.985 1.714-11.985 3.85v3.315c0 2.125 5.365 3.851 11.985 3.851 6.62 0 11.985-1.714 11.985-3.851v-3.314z"/>
    <g>
      <path fill="#D5D5DF" d="M110.62 116.548H16.544C7.408 116.548 0 109.14 0 100.003v-87.46C0 5.615 5.615 0 12.543 0h98.076c6.93 0 12.545 5.615 12.545 12.543v91.463c0 6.926-5.615 12.542-12.545 12.542" transform="translate(714 284)"/>
      <path fill="#FFF" fill-rule="nonzero" d="M83.876 33.243S88 31.497 88 37.369v37.852c0 5.87-4.124 4.129-4.124 4.129-6.092-4.227-11.035-7.029-15.46-8.892v13.073c0 .811-.657 1.469-1.467 1.469h-6.88c-.811 0-1.468-.658-1.468-1.47V67.41c-4.684-.856-7.252-.533-9.18-.615h-1.134c-1.245 0-2.255-1.01-2.255-2.257V48.053c0-1.247 1.01-2.258 2.255-2.258h1.133c5.493-.103 13.904 1.702 34.456-12.552zm-42.6 13.88l.102.004c1.038.076 1.855.944 1.855 2.003v14.231c0 1.11-.897 2.01-2.005 2.01l.052-.003-.13-.002c-4.897-.139-9.001-4.083-9.146-8.983L32 56.114c0-5.11 4.314-8.993 9.418-8.993l-.142.002z" transform="translate(714 284)"/>
    </g>
    <path fill="#9494A2" d="M19.422 292.34c0 5.363-4.347 9.71-9.71 9.71S0 297.704 0 292.34c0-5.362 4.35-9.71 9.712-9.71 5.363 0 9.71 4.348 9.71 9.71M847.84 140.574c0 5.363-4.35 9.71-9.712 9.71-5.365 0-9.71-4.347-9.71-9.71 0-5.362 4.345-9.71 9.71-9.71 5.363 0 9.712 4.348 9.712 9.71"/>
    <path fill="#D5D5DF" d="M830.437 523.083c0 4.096-3.32 7.414-7.414 7.414-4.097 0-7.414-3.318-7.414-7.414 0-4.095 3.317-7.415 7.414-7.415 4.095 0 7.414 3.32 7.414 7.415M374.713 7.414c0 4.095-3.321 7.414-7.416 7.414-4.095 0-7.414-3.319-7.414-7.414S363.203 0 367.297 0c4.095 0 7.416 3.32 7.416 7.414"/>
    <path stroke="#FDF8F9" stroke-linecap="round" stroke-linejoin="round" stroke-width="3.076" d="M430.879 6.414L499.19 6.414"/>
    <path fill="#EE6459" d="M295.897 128.427s-4.489 32.525-42.918 52.837c-40.977 21.656-11.851 86.792 59.436 88.994 77.44 2.392 119.726-67.354 61.781-154.753l-78.299 12.922"/>
    <path fill="#E6C966" d="M319.885 229.755L320.29 173.606 354.588 173.606 355.318 230.403 319.885 229.755"/>
    <path fill="#A6924B" d="M315.944 190.059c-1.816-4.969 11.882 23.029 26.105 21.205 12.198-1.565 14.254-23.525 14.254-23.525s-5.646 8.358-18.522 8.375c-14.358.023-21.837-6.055-21.837-6.055"/>
    <path fill="#EE6459" d="M295.5 142.645c4.365 25.031 18.915 46.096 42.246 46.096 23.333 0 39.372-20.822 42.247-46.096 3.262-28.677-18.914-45.61-42.247-45.61-23.33 0-46.727 19.906-42.246 45.61"/>
    <path fill="#E6C966" d="M301.231 155.695s-3.04-4.838-9.316-2.458c-6.273 2.379-3.435 17.616 5.976 19.557 0 0 3.374.736 6.018-1.574 0 0-2.314-11.254-2.678-15.525"/>
    <path stroke="#100E0F" stroke-linecap="round" stroke-linejoin="round" stroke-width="1.627" d="M293.16 158.611s5.256-1.753 8.985 5.986"/>
    <path fill="#E6C966" d="M373.278 155.695s3.041-4.838 9.315-2.458c6.274 2.379 3.435 17.616-5.975 19.557 0 0-3.373.736-6.02-1.574 0 0 2.316-11.254 2.68-15.525"/>
    <path stroke="#100E0F" stroke-linecap="round" stroke-linejoin="round" stroke-width="1.627" d="M381.348 158.611s-5.256-1.753-8.985 5.986"/>
    <path fill="#E6C966" d="M300.639 142.565c-.004 9.765 1.007 28.129 7.336 40.253 5.943 11.385 16.52 17.166 29.414 17.174 12.7.006 24.334-8.645 29.423-18.418 7.693-14.775 7.326-38.827 7.326-38.827s0-34.882-36.35-34.882c-38.287 0-37.15 34.7-37.15 34.7"/>
    <path fill="#EE6459" d="M329.209 140.887l-19.937 5.15s.905-5.593 9.062-7.625c8.156-2.031 10.875 2.475 10.875 2.475M341.878 140.887l19.937 5.15s-.906-5.593-9.062-7.625c-8.156-2.031-10.875 2.475-10.875 2.475"/>
    <path stroke="#100E0F" stroke-linecap="round" stroke-linejoin="round" stroke-width="1.627" d="M334.394 157.391L333.496 164.514 338.666 164.514"/>
    <path fill="#FFFFFE" d="M351.396 170.557h-29.042s.831 10.683 14.447 10.707c12.548.022 14.595-10.707 14.595-10.707"/>
    <path stroke="#100E0F" stroke-linecap="round" stroke-linejoin="round" stroke-width="1.627" d="M325.08 152.328s-5.512-2.81-10.175 0m41.892 0s-5.512-2.81-10.176 0"/>
    <path fill="#EE6459" d="M373.278 155.695s-9.68-19.187-2.92-36.25c0 0 6.735.104 6.497 26.727l-3.577 9.523M301.236 155.695s9.65-20.388 2.92-36.25c0 0-6.737.104-6.498 26.727l3.578 9.523"/>
    <path fill="#EE6459" d="M380.314 134.27s-52.43-3.107-67.624-24.352c0 0 4.962-13.224 28.317-9.56 23.355 3.663 39.307 33.911 39.307 33.911"/>
    <path fill="#EE6459" d="M334.173 104.466s-14.833 30.812-36.045 29.778c0 0 11.647-29.482 36.045-29.778"/>
    <path fill="#4D4CAC" d="M328.533 483.312c.832-1.909 3.595-1.66 4.148.348 2.202 8.02 5.107 31.651 3.812 101.203l.134 30.864h61.07l9.457-70.854c.489-5.246 20.094-91-29.17-157.126h-95.601s-38.648 66.48-43.98 147.793c-1.187 18.094-1.504 48.163-3.966 80.187h62.724l6.672-34.196s15.551-77.18 24.7-98.22z"/>
    <path stroke="#414092" stroke-width="3.165" d="M302.145 470.84L333.521 483.661"/>
    <path fill="#EE6459" d="M257.139 239.634s-20.023 2.846-34.675 52.999l39.454 22.616 23.28-32.02-28.06-43.595"/>
    <path fill="#E6C966" d="M261.918 315.249s-26.197 41.082-32.415 48.469c-6.43 7.643-16.168 11.43-24.636 6.137-7.624-4.764-10.448-14.497-6.56-22.602l27.198-53.1 36.413 21.096"/>
    <path fill="#E6C966" d="M198.654 239.705L230.019 341.785 196.568 356.331 176.451 241.226 198.654 239.705"/>
    <path fill="#E6C966" d="M196.495 244.784l4.897-4.721c3.591-3.461 5.816-8.1 6.269-13.065l1.261-13.843s.795-7.29-13.708-5.46c-14.501 1.83-15.358 1.921-15.188 6.226 0 0 2.652 5.971 12.004 7.182l4.465 23.68"/>
    <path fill="#E6C966" d="M178.14 246.903s-14.32-7.932-14.986-33.017c-.077-2.888 1.356-5.63 3.77-7.218 3.716-2.445 14.421-8.594 20.164-4.663l10.053 12.977-.646 29.802-18.355 2.12"/>
    <path fill="#E6C966" d="M199.236 210.608l7.994-40.405c.477-2.408-1.068-4.751-3.469-5.263-2.394-.512-4.759.993-5.31 3.381l-7.055 30.558-3.39.649-11.712-30.92c-.823-2.173-3.29-3.223-5.425-2.31-1.87.8-2.867 2.853-2.339 4.817l11.496 42.806 19.21-3.313"/>
    <path stroke="#C2A952" stroke-width="1.583" d="M199.868 207.404s-19.68-1.88-19.842 6.517c0 0-.422 6.282 12.004 7.182 0 0-7.751 2.177-8.068 10.837m35.217 74.565l8.33 27.106"/>
    <path fill="#E6C966" d="M391.62 298.21s31.16 109.593 43.093 201.435l20.077-3.807s-3.067-134.575-23.317-217.827l-39.853 20.2"/>
    <path fill="#E6C966" d="M454.628 491.231s30.215 44.614-6.048 64.67c-2.388 1.32-5.406.78-7.172-1.299l-.236-.275c-1.95-2.298-1.728-5.662.388-7.807 5.15-5.221 12.08-16.042 1.038-30.176 0 0-5.795 1.48-4.826 12.985.25 2.96-2.21 5.457-5.168 5.175-2.02-.192-3.676-1.635-4.169-3.603-1.9-7.585-5.047-26.397 7.079-36.503l19.114-3.167"/>
    <path fill="#EE6459" d="M410.816 248.78s28.664 9.408 33.7 54.585l-46.583 17.663-10.492-28.653 23.375-43.595"/>
    <path fill="#EE6459" d="M383.298 238.316L411.271 248.893 377.984 374.79 282.383 374.79 257.139 239.634 290.285 231.94 383.298 238.316"/>
    <path fill="#2D2D37" d="M282.383 387.747L377.984 387.747 377.984 374.79 282.383 374.79z"/>
    <path stroke="#D05950" stroke-width="3.165" d="M269.353 305.022l-7.435-33.65m132.684 40.562l10.044-37.5"/>
    <path fill="#E6C966" d="M346.5 223.644l36.798 14.672s-4.28 14.486-47.46 14.486c-37.62.001-45.553-20.862-45.553-20.862l35.741-8.296H346.5"/>
    <path fill="#EE6459" d="M627.44 615.727L549.87 615.727 520.296 478.909 513.452 478.492 513.184 615.727 435.843 615.727 439.954 409.502 587.588 409.502z"/>
    <path stroke="#D05950" stroke-width="3.165" d="M500.354 477.539L544.514 477.539"/>
    <path fill="#C6A268" d="M623.237 265.849l72.995-18.666c14.54-4.085 23.138-19.055 19.34-33.672-3.912-15.06-19.45-23.954-34.416-19.704l-73.084 20.752 15.165 51.29"/>
    <path fill="#61AC77" d="M631.279 201.283L559.984 210.649 580.374 283.418 648.458 269.245 631.279 201.283"/>
    <path fill="#C6A268" d="M665.317 110.666c1.824-11.44-2.61-26.06-2.61-26.06l1.622-25.67c.316-2.432-1.248-4.714-3.631-5.297-2.566-.628-5.158.931-5.808 3.493l-2.145 16.576-2.268-.043-3.087-26.644c-.237-3.24-3.229-5.563-6.427-4.988-2.662.478-4.575 2.83-4.504 5.533l2.034 28.84-2.334.456-8.169-28.737c-.879-3.335-4.365-5.26-7.654-4.23-3.027.949-4.807 4.075-4.077 7.16l8.437 32.913-2.962.803-11.081-23.115c-1.284-2.676-4.599-3.66-7.138-2.119-2.036 1.235-2.924 3.73-2.13 5.975l11.236 30.755-9.3-.235c-4.35.016-7.74 3.778-7.305 8.108.309 3.056 2.48 5.602 5.452 6.387l12.239 2.961s8.254 11.467 21.97 16.443c0 0 28.248-10.538 29.64-19.265"/>
    <path stroke="#A98954" stroke-width="1.583" d="M612.621 96.267s17.745-1.042 28.283 8.954"/>
    <path fill="#C6A268" d="M714.601 210.49L665.317 110.666 634.209 123.756 665.552 233.575 714.601 210.49"/>
    <path stroke="#A98954" stroke-width="1.583" d="M656.223 200.886L661.052 217.804"/>
    <path fill="#61AC77" d="M496.264 206.702L437.912 218.778 439.954 409.502 587.588 409.502 592.22 213.549 536.672 208.745 496.264 206.702"/>
    <path stroke="#4D8B5F" stroke-width="3.165" d="M590.574 281.345L590.574 256.719"/>
    <path fill="#4D8B5F" d="M477.435 299.788c-9.984 0-18.077-8.093-18.077-18.075V263.64h36.151v18.074c0 9.982-8.09 18.075-18.074 18.075"/>
    <path fill="#C6A268" d="M395.594 267.236L353.5 343.465c-7.367 13.342-2.697 30.125 10.501 37.745h.002c13.036 7.527 29.689 3.384 37.683-9.37l43.697-69.72-49.79-34.884"/>
    <path fill="#61AC77" d="M382.54 277.849l60.388 38.752 9.691-46.282c10.22-16.502 23.21-36.412 6.87-46.888-16.551-10.613-38.575-5.77-49.145 10.81l-27.804 43.608"/>
    <path stroke="#4D8B5F" stroke-width="3.165" d="M438.959 314.054L438.959 262.205"/>
    <path fill="#C6A268" d="M374.198 384.704L484.708 381.682 492.312 345.971 367.41 330.173 374.198 384.704"/>
    <path stroke="#A98954" stroke-width="1.583" d="M423.384 337.222L394.602 333.611"/>
    <path fill="#C6A268" d="M484.971 347.432s14.14-19.12 30.777-.071l-6.616 13.135-24.16-13.064"/>
    <path fill="#2D2D37" d="M501.614 327.166l-4.368 26.748 33.717 3.75 5.352-25.688c.577-2.77-1.341-5.44-4.15-5.78l-25.204-3.047c-2.57-.31-4.929 1.462-5.347 4.017"/>
    <path fill="#C6A268" d="M492.092 345.152l39.894.992c4.626.116 8.314 3.896 8.314 8.522 0 3.271-1.873 6.255-4.82 7.676l-2.133 1.031s4.075 30.207-19.901 33.804c-23.973 3.596-37.4-15.343-37.4-15.343l16.046-36.682M538.881 208.822L538.338 148.583 494.597 148.583 493.623 207.25 538.881 208.822"/>
    <path fill="#9C7F4F" d="M490.998 166.173c-2.275-5.2 15.186 28.81 33.015 26.898 15.29-1.636 15.92-29.326 15.92-29.326s-5.425 8.747-21.561 8.767c-17.997.022-27.374-6.339-27.374-6.339"/>
    <path fill="#2D2D37" d="M561.623 115.365c-4.683 26.854-20.293 49.454-45.326 49.454-25.032 0-42.239-22.34-45.323-49.454-3.5-30.764 20.291-51.199 45.323-51.199 25.033 0 50.132 23.624 45.326 51.199"/>
    <path fill="#C6A268" d="M555.473 129.366s3.262-5.192 9.995-2.638c6.731 2.553 3.685 18.9-6.41 20.983 0 0-3.621.79-6.458-1.69 0 0 2.484-12.073 2.873-16.655"/>
    <path stroke="#100E0F" stroke-linecap="round" stroke-linejoin="round" stroke-width="1.745" d="M564.133 132.494s-5.64-1.881-9.642 6.423"/>
    <path fill="#C6A268" d="M478.178 129.366s-3.263-5.192-9.993-2.638c-6.73 2.553-3.686 18.9 6.41 20.983 0 0 3.62.79 6.458-1.69 0 0-2.484-12.073-2.875-16.655"/>
    <path stroke="#100E0F" stroke-linecap="round" stroke-linejoin="round" stroke-width="1.745" d="M469.52 132.494s5.638-1.881 9.639 6.423"/>
    <path fill="#C6A268" d="M556.109 115.28c.005 10.475-1.08 32.392-7.87 45.4-6.377 12.214-16.922 18.787-30.747 19.177-11.031.313-26.918-10.028-32.378-20.512-8.253-15.852-7.859-43.872-7.859-43.872s0-37.42 38.999-37.42c41.075 0 39.855 37.226 39.855 37.226"/>
    <path fill="#2D2D37" d="M503.054 127.969c0 1.664-1.347 3.013-3.013 3.013-1.663 0-3.014-1.35-3.014-3.013 0-1.665 1.35-3.014 3.014-3.014 1.666 0 3.013 1.349 3.013 3.014M534.201 127.969c0 1.664-1.35 3.013-3.014 3.013-1.664 0-3.013-1.35-3.013-3.013 0-1.665 1.35-3.014 3.013-3.014 1.664 0 3.014 1.349 3.014 3.014M508.2 115.694l-21.39 5.525s.972-6 9.723-8.18c8.75-2.18 11.666 2.655 11.666 2.655M521.791 115.694l21.39 5.525s-.973-6-9.723-8.18c-8.75-2.18-11.667 2.655-11.667 2.655"/>
    <path stroke="#100E0F" stroke-linecap="round" stroke-linejoin="round" stroke-width="1.745" d="M512.799 135.615L512.799 143.258 518.345 143.258"/>
    <path fill="#FFFFFE" d="M533.053 149.692H500.31s.914 8.608 15.522 8.635c13.463.023 17.22-8.635 17.22-8.635"/>
    <path fill="#2D2D37" d="M478.178 129.366s14.602-22.404 3.132-38.89c0 0-7.225.11-6.97 28.672l3.838 10.218M555.468 129.366s-14.6-22.404-3.131-38.89c0 0 7.226.11 6.97 28.672l-3.839 10.218"/>
    <path fill="#2D2D37" d="M477.416 89.398s18.853 21.327 57.697 17.148c34.687-3.73 37.693-28.055 29.435-37.669-11.8-13.74-37.834-8.633-51.749 6.708l-35.383 13.813"/>
    <path fill="#C6A268" d="M493.623 207.25L516.683 236.905 538.881 208.822 493.623 207.25"/>
    <path fill="#4D8B5F" d="M493.623 203.065L480.018 210.064 495.393 240.887 510.767 229.297 493.623 203.065M538.997 203.065L554.313 210.271 538.131 240.887 522.877 228.959 538.997 203.065"/>
  </g>
</svg>
